<svg xmlns="http://www.w3.org/2000/svg" xmlns:xlink="http://www.w3.org/1999/xlink" width="1563.547" height="1570.844" viewBox="0 0 1563.547 1570.844">
  <defs>
    <clipPath id="clip-path">
      <path id="Path_541" data-name="Path 541" d="M151.695-597h1246.95A124.692,124.692,0,0,1,1523.34-472.3V774.635a124.692,124.692,0,0,1-124.695,124.7H151.695A124.691,124.691,0,0,1,27,774.635V-472.3A124.691,124.691,0,0,1,151.695-597Z" transform="translate(-27 597)" fill="none" clip-rule="evenodd"/>
    </clipPath>
    <clipPath id="clip-path-2">
      <path id="Path_540" data-name="Path 540" d="M0,62818.539H89780.375V-1025H0Z" transform="translate(0 1025)" fill="none"/>
    </clipPath>
    <clipPath id="clip-path-3">
      <rect id="Rectangle_109" data-name="Rectangle 109" width="2743.289" height="2743.277" fill="none"/>
    </clipPath>
    <clipPath id="clip-path-4">
      <path id="Path_539" data-name="Path 539" d="M27,899.33H1523.34V-597H27Z" transform="translate(-27 597)" fill="none"/>
    </clipPath>
    <clipPath id="clip-path-5">
      <path id="Path_544" data-name="Path 544" d="M33-587H157.695V36.469H33Z" transform="translate(-33 587)" fill="none" clip-rule="evenodd"/>
    </clipPath>
    <clipPath id="clip-path-7">
      <path id="Path_547" data-name="Path 547" d="M38-590H162.7V220.51H38Z" transform="translate(-38 590)" fill="none" clip-rule="evenodd"/>
    </clipPath>
    <clipPath id="clip-path-9">
      <path id="Path_550" data-name="Path 550" d="M43-584H167.695v436.43H43Z" transform="translate(-43 584)" fill="none" clip-rule="evenodd"/>
    </clipPath>
    <clipPath id="clip-path-11">
      <path id="Path_553" data-name="Path 553" d="M40.23-598.2v791.07H778.9V-598.2Z" transform="translate(-40.23 598.197)" fill="none" clip-rule="evenodd"/>
    </clipPath>
  </defs>
  <g id="Onboarding_Icon" data-name="Onboarding Icon" transform="translate(-26 -418.805)">
    <g id="Group_620" data-name="Group 620" transform="translate(26 493.318)" clip-path="url(#clip-path)">
      <g id="Group_619" data-name="Group 619" transform="translate(-1683.382 -26684.604)" clip-path="url(#clip-path-2)">
        <g id="Group_618" data-name="Group 618" transform="translate(1059.907 26061.131)" clip-path="url(#clip-path-3)">
          <g id="Group_617" data-name="Group 617" transform="translate(623.475 623.472)" clip-path="url(#clip-path-4)">
            <g id="Group_616" data-name="Group 616">
              <path id="Path_538" data-name="Path 538" d="M124.695,0h1246.95a124.7,124.7,0,0,1,124.7,124.694V1371.639a124.7,124.7,0,0,1-124.7,124.694H124.695A124.7,124.7,0,0,1,0,1371.639V124.694A124.7,124.7,0,0,1,124.695,0Z" fill="none" stroke="#8eb525" stroke-width="2"/>
            </g>
          </g>
        </g>
      </g>
    </g>
    <g id="Group_622" data-name="Group 622" transform="translate(400.085 1116.79)" clip-path="url(#clip-path-5)">
      <g id="Group_621" data-name="Group 621" transform="translate(-2057.467 -27308.076)" clip-path="url(#clip-path-2)">
        <path id="Path_542" data-name="Path 542" d="M28-592H776.17V654.945H28Z" transform="translate(1717.73 27588.34)" fill="#8eb525"/>
      </g>
    </g>
    <g id="Group_624" data-name="Group 624" transform="translate(711.822 929.748)" clip-path="url(#clip-path-7)">
      <g id="Group_623" data-name="Group 623" transform="translate(-2369.204 -27121.033)" clip-path="url(#clip-path-2)">
        <path id="Path_545" data-name="Path 545" d="M33-595H781.17V838.984H33Z" transform="translate(2024.467 27404.299)" fill="#8eb525"/>
      </g>
    </g>
    <g id="Group_626" data-name="Group 626" transform="translate(1023.56 1303.832)" clip-path="url(#clip-path-9)">
      <g id="Group_625" data-name="Group 625" transform="translate(-2680.942 -27495.117)" clip-path="url(#clip-path-2)">
        <path id="Path_548" data-name="Path 548" d="M38-589H786.17V470.9H38Z" transform="translate(2331.205 27772.383)" fill="#8eb525"/>
      </g>
    </g>
    <g id="Group_628" data-name="Group 628" transform="translate(850.873 418.805)" clip-path="url(#clip-path-11)">
      <g id="Group_627" data-name="Group 627" transform="translate(-2508.255 -26610.092)" clip-path="url(#clip-path-2)">
        <path id="Path_551" data-name="Path 551" d="M35.23-603.2H1397.38V811.344H35.23Z" transform="translate(2161.287 26901.553)" fill="#fff"/>
      </g>
    </g>
    <path id="Union_2" data-name="Union 2" d="M249.4,623.4V373.966H0V249.314H249.4V0H374.08V249.314H623.518V373.966H374.08V623.4Z" transform="translate(898.865 493.374)" fill="#8eb525"/>
  </g>
</svg>
