<svg xmlns="http://www.w3.org/2000/svg" xmlns:xlink="http://www.w3.org/1999/xlink" width="1670.594" height="1734.847" viewBox="0 0 1670.594 1734.847">
  <defs>
    <clipPath id="clip-path">
      <path id="Path_1103" data-name="Path 1103" d="M28,1673.847H1698.594V-61H28Z" transform="translate(-28 61)" fill="none"/>
    </clipPath>
    <clipPath id="clip-path-2">
      <path id="Path_1106" data-name="Path 1106" d="M292.368-52.022C555.693-39.165,704.233,28.739,831.087,72.546c243.407,84.057,368.8,152.047,368.8,296.891,0,485.241-618.276,950.492-907.517,567.55C191.694,803.7-101.057,597.57,101.819,164.795Z" transform="translate(-31.838 52.022)" fill="none" clip-rule="evenodd"/>
    </clipPath>
  </defs>
  <g id="Log_Out_Icon" data-name="Log Out Icon" transform="translate(-27 -956)">
    <g id="Group_1570" data-name="Group 1570" transform="translate(27 956)" clip-path="url(#clip-path)">
      <g id="Group_1568" data-name="Group 1568" transform="translate(73.433 64.915)">
        <path id="Path_1101" data-name="Path 1101" d="M1093.762,830.476l-905.52,475.4A128.507,128.507,0,0,1,0,1192.094V127.517A128.507,128.507,0,0,1,188.242,13.737l905.52,475.4c94.259,49.486,130.554,166.013,81.069,260.272A192.761,192.761,0,0,1,1093.762,830.476Z" transform="translate(0 0.99)" fill="none" stroke="#767676" stroke-width="1"/>
      </g>
      <g id="Group_1569" data-name="Group 1569" transform="translate(1505.37 803.17)">
        <path id="Path_1102" data-name="Path 1102" d="M1.714.5V257.514" transform="translate(-1.714 -0.5)" fill="none" stroke="#767676" stroke-linecap="square" stroke-width="1"/>
      </g>
    </g>
    <g id="Group_1572" data-name="Group 1572" transform="translate(273.59 1532.856)" clip-path="url(#clip-path-2)">
      <g id="Group_1571" data-name="Group 1571" transform="translate(-246.59 -576.856)" clip-path="url(#clip-path)">
        <path id="Path_1104" data-name="Path 1104" d="M26.838-57.022H1837.421V1715.766H26.838Z" transform="translate(-101.516 312.61)" fill="#fff"/>
      </g>
    </g>
    <g id="Group_1577" data-name="Group 1577" transform="translate(27 956)" clip-path="url(#clip-path)">
      <g id="Group_1573" data-name="Group 1573" transform="translate(550.745 1060.184)">
        <path id="Path_1107" data-name="Path 1107" d="M1.714.5V193.261" transform="translate(-1.714 -0.5)" fill="none" stroke="#767676" stroke-linecap="square" stroke-width="1"/>
      </g>
      <g id="Group_1574" data-name="Group 1574" transform="translate(550.745 803.17)">
        <path id="Path_1108" data-name="Path 1108" d="M.571,1.5H955.2" transform="translate(-0.571 -1.5)" fill="none" stroke="#767676" stroke-linecap="square" stroke-width="1"/>
      </g>
      <g id="Group_1575" data-name="Group 1575" transform="translate(550.745 1060.184)">
        <path id="Path_1109" data-name="Path 1109" d="M.571,1.5H955.2" transform="translate(-0.571 -1.5)" fill="none" stroke="#767676" stroke-linecap="square" stroke-width="1"/>
      </g>
      <g id="Group_1576" data-name="Group 1576" transform="translate(550.745 1445.706)">
        <path id="Path_1110" data-name="Path 1110" d="M1.714.5V64.754" transform="translate(-1.714 -0.5)" fill="none" stroke="#767676" stroke-linecap="square" stroke-width="1"/>
      </g>
    </g>
  </g>
</svg>
