<svg xmlns="http://www.w3.org/2000/svg" xmlns:xlink="http://www.w3.org/1999/xlink" width="1701.355" height="1561.367" viewBox="0 0 1701.355 1561.367">
  <defs>
    <clipPath id="clip-path">
      <path id="Path_1100" data-name="Path 1100" d="M22-468H1448.5V25.787H735.252V958.5H22Z" transform="translate(-22 468)" fill="none" clip-rule="evenodd"/>
    </clipPath>
    <clipPath id="clip-path-2">
      <path id="Path_1099" data-name="Path 1099" d="M0,55157.293H79006.328V-1025H0Z" transform="translate(0 1025)" fill="none"/>
    </clipPath>
    <clipPath id="clip-path-3">
      <rect id="Rectangle_234" data-name="Rectangle 234" width="1975.158" height="1975.159" fill="none"/>
    </clipPath>
    <clipPath id="clip-path-4">
      <path id="Path_1094" data-name="Path 1094" d="M22,958.5H1448.5V-468H22Z" transform="translate(-22 468)" fill="none"/>
    </clipPath>
    <clipPath id="clip-path-5">
      <path id="Path_1098" data-name="Path 1098" d="M136.731-464h877.848A109.729,109.729,0,0,1,1124.31-354.268V523.58a109.729,109.729,0,0,1-109.731,109.73H136.731A109.729,109.729,0,0,1,27,523.58V-354.268A109.729,109.729,0,0,1,136.731-464Z" transform="translate(-27 464)" fill="none" clip-rule="evenodd"/>
    </clipPath>
    <clipPath id="clip-path-7">
      <rect id="Rectangle_233" data-name="Rectangle 233" width="2194.62" height="2194.621" fill="none"/>
    </clipPath>
    <clipPath id="clip-path-8">
      <path id="Path_1096" data-name="Path 1096" d="M27,633.311H1124.31V-464H27Z" transform="translate(-27 464)" fill="none"/>
    </clipPath>
  </defs>
  <g id="Settings_Icon" data-name="Settings Icon" transform="translate(-14.463 -543)">
    <g id="Group_1566" data-name="Group 1566" transform="translate(14.463 543)" clip-path="url(#clip-path)">
      <g id="Group_1565" data-name="Group 1565" transform="translate(-1207.041 -30560.094)" clip-path="url(#clip-path-2)">
        <g id="Group_1564" data-name="Group 1564" transform="translate(932.714 30285.768)" clip-path="url(#clip-path-3)">
          <g id="Group_1558" data-name="Group 1558" transform="translate(274.328 274.328)" clip-path="url(#clip-path-4)">
            <path id="Path_1093" data-name="Path 1093" d="M17-473H1992.158V1502.156H17Z" transform="translate(-291.328 198.672)" fill="#fff"/>
          </g>
          <g id="Group_1563" data-name="Group 1563" transform="translate(548.655 493.79)" clip-path="url(#clip-path-5)">
            <g id="Group_1562" data-name="Group 1562" transform="translate(-274.328 -219.462)" clip-path="url(#clip-path-4)">
              <g id="Group_1561" data-name="Group 1561" transform="translate(-274.328 -329.193)" clip-path="url(#clip-path-7)">
                <g id="Group_1560" data-name="Group 1560" transform="translate(548.655 548.655)" clip-path="url(#clip-path-8)">
                  <g id="Group_1559" data-name="Group 1559">
                    <path id="Path_1095" data-name="Path 1095" d="M109.731,0H987.579A109.731,109.731,0,0,1,1097.31,109.731V987.579A109.731,109.731,0,0,1,987.579,1097.31H109.731A109.731,109.731,0,0,1,0,987.579V109.731A109.731,109.731,0,0,1,109.731,0Z" fill="none" stroke="#767676" stroke-width="2"/>
                  </g>
                </g>
              </g>
            </g>
          </g>
        </g>
      </g>
    </g>
    <g id="Group_1567" data-name="Group 1567" transform="translate(837.443 1201.387)">
      <path id="Path_568" data-name="Path 568" d="M774.293,495.462,869.5,569.916c8.573,6.769,10.829,18.952,5.415,28.879L784.672,754.925a22.011,22.011,0,0,1-27.525,9.927L644.788,719.728c-23.464,17.6-48.733,32.94-76.259,44.221L551.382,883.529c-1.354,10.829-10.83,18.952-22.111,18.952H348.776c-11.281,0-20.757-8.122-22.111-18.952L309.519,763.95a329.67,329.67,0,0,1-76.259-44.221L120.9,764.852c-9.927,3.61-22.111,0-27.525-9.927L3.129,598.8c-5.415-9.927-3.159-22.11,5.415-28.879l95.211-74.455A357.868,357.868,0,0,1,100.6,451.24a357.868,357.868,0,0,1,3.159-44.222L8.543,332.564a22.247,22.247,0,0,1-5.415-28.879L93.376,147.556a22.011,22.011,0,0,1,27.525-9.927L233.26,182.752c23.464-17.6,48.734-32.941,76.259-44.221L326.666,18.952C328.019,8.122,337.5,0,348.776,0H529.271c11.281,0,20.757,8.122,22.111,18.952l17.147,119.579a329.67,329.67,0,0,1,76.259,44.221l112.359-45.124c9.927-3.61,22.11,0,27.525,9.927l90.247,156.129c5.415,9.927,3.159,22.111-5.415,28.879l-95.211,74.455a351.633,351.633,0,0,1,3.159,44.222A351.634,351.634,0,0,1,774.293,495.462ZM439.024,609.174c87.089,0,157.933-70.844,157.933-157.934S526.113,293.306,439.024,293.306,281.091,364.151,281.091,451.24,351.935,609.174,439.024,609.174Z" transform="translate(0)" fill="none" stroke="#767676" stroke-width="1"/>
    </g>
  </g>
</svg>
